<svg width="15" height="15" viewBox="0 0 15 15" fill="none" xmlns="http://www.w3.org/2000/svg">
<path d="M6.38897 0.680882C6.68394 -0.226961 7.96831 -0.226961 8.26323 0.680882L9.3172 3.92455C9.44914 4.33056 9.82743 4.60544 10.2544 4.60544H13.665C14.6195 4.60544 15.0164 5.82693 14.2442 6.38801L11.4849 8.39271C11.1396 8.64358 10.995 9.08839 11.1269 9.49436L12.1809 12.738C12.4758 13.6459 11.4369 14.4009 10.6645 13.8398L7.90534 11.835C7.55996 11.5842 7.09229 11.5842 6.74693 11.835L3.98769 13.8398C3.21543 14.4009 2.17637 13.6459 2.47134 12.738L3.52528 9.49436C3.65719 9.08839 3.51268 8.64358 3.16732 8.39271L0.408081 6.38801C-0.364182 5.82693 0.0327098 4.60544 0.987269 4.60544H4.39787C4.82477 4.60544 5.20311 4.33056 5.33503 3.92455L6.38897 0.680882Z" fill="#F59E0B"/>
</svg>
